<svg width="129" height="36" fill="none" xmlns="http://www.w3.org/2000/svg"><path d="M1.489 12.798a7.07 7.07 0 0 1 1.148-.168c.41-.028.816-.042 1.218-.042.43 0 .863.042 1.302.126a3.55 3.55 0 0 1 1.218.462c.364.224.658.532.882.924.233.392.35.891.35 1.498 0 .597-.108 1.101-.322 1.512-.215.41-.5.747-.854 1.008-.355.252-.76.434-1.218.546a5.923 5.923 0 0 1-1.414.168H3.225l-.336-.028a2.406 2.406 0 0 1-.238-.028V22.5H1.489v-9.702Zm2.394.798c-.243 0-.476.005-.7.014-.224.01-.402.033-.532.07v4.06a.862.862 0 0 0 .224.042c.102 0 .21.005.322.014h.546c.317 0 .63-.028.938-.084.317-.065.602-.177.854-.336.252-.159.452-.383.602-.672.159-.29.238-.658.238-1.106 0-.383-.075-.7-.224-.952a1.588 1.588 0 0 0-.574-.616c-.234-.159-.5-.27-.798-.336a4.184 4.184 0 0 0-.896-.098Zm9.2 6.188H9.47L8.49 22.5H7.342l3.71-9.954h.533l3.723 9.954h-1.217l-1.008-2.716Zm-3.235-1.008h2.884l-1.091-2.982-.35-1.484h-.014l-.35 1.512-1.079 2.954Zm7.518-.91v-.98h.532c.121 0 .243-.005.364-.014.13-.01.252-.014.364-.014.121-.01.22-.023.294-.042.243-.037.471-.098.686-.182.215-.093.401-.21.56-.35.159-.14.285-.303.378-.49.093-.187.14-.392.14-.616 0-.308-.051-.565-.154-.77a1.226 1.226 0 0 0-.434-.49 1.534 1.534 0 0 0-.63-.266 3.234 3.234 0 0 0-.756-.084c-.504 0-.933.037-1.288.112-.355.065-.64.15-.854.252l-.308-.924c.187-.103.523-.205 1.008-.308a7.307 7.307 0 0 1 1.638-.168c.373 0 .737.042 1.092.126a2.7 2.7 0 0 1 .966.392c.29.177.518.425.686.742.177.308.266.69.266 1.148 0 .467-.154.915-.462 1.344-.308.42-.77.723-1.386.91v.056c.663.093 1.185.34 1.568.742.383.401.574.938.574 1.61 0 .532-.107.994-.322 1.386-.205.383-.48.7-.826.952a3.432 3.432 0 0 1-1.176.56 5.41 5.41 0 0 1-1.344.168c-.616 0-1.125-.037-1.526-.112a4.94 4.94 0 0 1-.98-.252l.294-1.05c.215.103.513.191.896.266.392.075.863.112 1.414.112.29 0 .574-.037.854-.112.28-.084.527-.205.742-.364a1.87 1.87 0 0 0 .532-.616c.14-.243.21-.532.21-.868 0-.588-.205-1.017-.616-1.288-.41-.28-.947-.443-1.61-.49a3.896 3.896 0 0 0-.322-.014 2.966 2.966 0 0 0-.294-.014h-.77Zm6.818-5.068c.355-.084.738-.14 1.148-.168.41-.028.817-.042 1.218-.042.43 0 .863.042 1.302.126a3.55 3.55 0 0 1 1.218.462c.364.224.658.532.882.924.233.392.35.891.35 1.498 0 .597-.107 1.101-.322 1.512-.215.41-.5.747-.854 1.008-.355.252-.76.434-1.218.546a5.922 5.922 0 0 1-1.414.168H25.92l-.336-.028a2.407 2.407 0 0 1-.238-.028V22.5h-1.162v-9.702Zm2.394.798c-.242 0-.476.005-.7.014-.224.01-.401.033-.532.07v4.06a.863.863 0 0 0 .224.042c.103 0 .21.005.322.014h.546c.318 0 .63-.028.938-.084.317-.065.602-.177.854-.336.252-.159.453-.383.602-.672.159-.29.238-.658.238-1.106 0-.383-.075-.7-.224-.952a1.588 1.588 0 0 0-.574-.616c-.233-.159-.5-.27-.798-.336a4.183 4.183 0 0 0-.896-.098Zm9.2 6.188h-3.612l-.98 2.716h-1.148l3.71-9.954h.532l3.724 9.954h-1.218l-1.008-2.716Zm-3.234-1.008h2.884l-1.092-2.982-.35-1.484h-.014l-.35 1.512-1.078 2.954Zm6.761-6.076h5.32v1.036h-4.158v2.94c.159-.028.355-.056.588-.084.234-.028.458-.042.672-.042.476 0 .929.047 1.358.14.43.084.808.233 1.134.448.327.215.584.509.77.882.196.364.294.826.294 1.386 0 .56-.098 1.045-.294 1.456a2.857 2.857 0 0 1-.784.994c-.326.252-.71.443-1.148.574-.43.121-.882.182-1.358.182-.158 0-.34-.005-.546-.014-.196 0-.406-.01-.63-.028-.214-.019-.43-.042-.644-.07a3.503 3.503 0 0 1-.574-.098V12.7Zm2.534 8.904c.299 0 .584-.042.854-.126.27-.084.504-.205.7-.364.206-.168.364-.378.476-.63a2.01 2.01 0 0 0 .182-.882c0-.43-.07-.775-.21-1.036a1.54 1.54 0 0 0-.532-.63 1.932 1.932 0 0 0-.784-.294 4.78 4.78 0 0 0-.91-.084c-.084 0-.182.005-.294.014l-.336.028c-.112.01-.214.023-.308.042-.093.01-.163.019-.21.028v3.85c.066.019.15.033.252.042.112.01.229.019.35.028.13.01.262.014.392.014h.378Zm4.758-4.004c0-1.633.345-2.884 1.035-3.752.691-.877 1.676-1.316 2.955-1.316.69 0 1.287.121 1.791.364.505.243.92.588 1.246 1.036.337.439.584.97.742 1.596.16.616.239 1.307.239 2.072 0 1.633-.35 2.889-1.05 3.766-.691.868-1.68 1.302-2.968 1.302-.682 0-1.275-.121-1.779-.364a3.48 3.48 0 0 1-1.245-1.022 4.645 4.645 0 0 1-.729-1.596 8.483 8.483 0 0 1-.238-2.086Zm1.231 0c0 .541.052 1.055.154 1.54.112.485.28.915.505 1.288.224.364.508.658.853.882.355.215.77.322 1.246.322.869 0 1.55-.327 2.044-.98.495-.663.742-1.68.742-3.052 0-.532-.056-1.04-.167-1.526a3.793 3.793 0 0 0-.505-1.288 2.535 2.535 0 0 0-.867-.882c-.346-.224-.761-.336-1.246-.336-.86 0-1.536.331-2.03.994-.486.653-.729 1.666-.729 3.038Zm14.403-3.864h-3.052V22.5h-1.162v-8.764h-3.052V12.7h7.266v1.036Zm5.156 6.048h-3.612l-.98 2.716h-1.148l3.71-9.954h.532l3.724 9.954h-1.218l-1.008-2.716Zm-3.234-1.008h2.884l-1.092-2.982-.35-1.484h-.014l-.35 1.512-1.078 2.954Zm12.628-.77h-4.704V22.5h-1.162v-9.8h1.162v4.27h4.704V12.7h1.162v9.8H76.78v-4.494Zm3.134-.406c0-1.633.345-2.884 1.036-3.752.69-.877 1.675-1.316 2.954-1.316.69 0 1.288.121 1.792.364s.92.588 1.246 1.036c.336.439.583.97.742 1.596.159.616.238 1.307.238 2.072 0 1.633-.35 2.889-1.05 3.766-.69.868-1.68 1.302-2.968 1.302-.681 0-1.274-.121-1.778-.364a3.48 3.48 0 0 1-1.246-1.022 4.643 4.643 0 0 1-.728-1.596 8.483 8.483 0 0 1-.238-2.086Zm1.232 0c0 .541.051 1.055.154 1.54.112.485.28.915.504 1.288.224.364.508.658.854.882.354.215.77.322 1.246.322.868 0 1.55-.327 2.044-.98.495-.663.742-1.68.742-3.052 0-.532-.056-1.04-.168-1.526a3.793 3.793 0 0 0-.504-1.288 2.536 2.536 0 0 0-.868-.882c-.346-.224-.76-.336-1.246-.336-.859 0-1.535.331-2.03.994-.486.653-.728 1.666-.728 3.038ZM111.151 2.25h-.101L97.5 3.59V27.22l13.55 7.654 13.45-7.654V3.589L111.151 2.25Zm11.442 11.577L111.05 7.32v-.096h-.1l-.101-.096v.096l-11.442 6.602V5.216l11.543-1.148 11.643 1.148v8.61ZM110.95 8.756l11.543 6.41-4.517 2.488-7.127-4.019v1.34l5.922 3.348-.903.479-5.019-2.87v1.339l3.815 2.2-.803.479-3.012-1.722v1.34l1.908 1.051-1.807 1.053-11.443-6.41 11.443-6.506Zm-11.543 7.94 11.442 6.507v.957l-7.929-4.497v1.34l8.03 4.592v1.052l-8.03-4.497v1.34l8.03 4.592 8.13-4.688V18.42l3.413-1.913v9.567l-11.543 6.602-11.543-6.506v-9.472Z" fill="#000"/></svg>